<svg id="图层_1" data-name="图层 1" xmlns="http://www.w3.org/2000/svg" viewBox="0 0 106 36"><defs><style>.cls-1{fill:#4b93de;}.cls-2{fill:#44aee8;}.cls-3{fill:#c21212;}.cls-4{fill:#105cb3;}.cls-5{fill:#d61e1e;}.cls-6{fill:#266bcc;}.cls-7{fill:#f0352f;}.cls-8{fill:#f7ec26;}.cls-9{fill:#e2d317;}.cls-10{fill:#d0b444;}.cls-11{fill:#eb4848;}</style></defs><title>画板 54</title><polygon class="cls-1" points="85.42 19.09 90.82 19.09 88.12 12.74 85.42 19.09"/><path class="cls-2" d="M88.16,1.31,72.65,6.81,75,27.46l13.2,7.32,13.22-7.37,2.38-20.55Zm6.06,25.77-2.07-4.86H84.09L82,27.08H78.39L86.5,8.92h0L88.12,5.3v0l0-.07,1.6,3.62h0l8.08,18.24Z"/><polygon class="cls-3" points="98.67 28.96 88.12 5.3 88.16 1.31 98.67 28.96 98.67 28.96"/><polygon class="cls-4" points="77.64 28.9 88.12 5.3 88.16 1.31 77.64 28.9 77.64 28.9"/><polygon class="cls-5" points="94.85 15.91 98.67 28.96 101.47 27.4 103.84 6.86 94.85 15.91"/><polygon class="cls-6" points="81.39 15.85 77.64 28.9 75.05 27.46 72.65 6.81 81.39 15.85"/><polygon class="cls-7" points="88.16 1.31 88.12 5.3 97.84 27.11 103.84 6.86 88.16 1.31"/><polygon class="cls-1" points="88.16 1.31 88.13 5.33 78.39 27.07 72.65 6.81 88.16 1.31"/><polygon class="cls-5" points="97.84 27.11 98.67 28.96 101.47 27.4 103.84 6.81 97.84 27.11"/><polygon class="cls-6" points="78.45 27.07 77.64 28.89 75.06 27.45 72.69 6.93 78.45 27.07"/><polygon class="cls-8" points="88.25 34.85 82.02 27.08 84.09 22.22 92.15 22.22 94.22 27.08 88.25 34.85"/><polygon class="cls-9" points="88.25 34.85 78.45 27.07 82.02 27.08 94.22 27.08 94.22 27.08 97.84 27.11 88.25 34.85"/><polygon class="cls-10" points="88.25 34.85 88.25 34.85 77.64 28.9 78.45 27.07 88.25 34.85"/><polygon class="cls-10" points="88.25 34.85 88.25 34.85 97.84 27.11 97.84 27.11 98.67 28.96 88.25 34.85"/><path class="cls-11" d="M15,19h5.77l-2.89-6.85"/><path class="cls-11" d="M17.93,1.34,2.14,6.9,4.55,27.5l13.38,7.32,13.38-7.31L33.72,6.9,17.93,1.34Zm9.85,25.54H24.11l-2-4.89H13.74l-2,4.89H8.08L17.93,5l9.85,21.84Z"/></svg>