<svg id="图层_1" data-name="图层 1" xmlns="http://www.w3.org/2000/svg" viewBox="0 0 36 36"><defs><style>.cls-1{fill:none;}.cls-1,.cls-2{stroke:#6975f9;stroke-linecap:round;stroke-linejoin:round;}.cls-2{fill:#c6c9fd;}</style></defs><title>画板 26 副本 2</title><rect class="cls-1" x="1.46" y="2.59" width="8.01" height="28.81" rx="2.38" ry="2.38"/><path class="cls-1" d="M17.67,31.4H15.91a2.4,2.4,0,0,1-2.29-2.48V5.06a2.4,2.4,0,0,1,2.29-2.48h3.43a2.4,2.4,0,0,1,2.29,2.48V15.44"/><path class="cls-1" d="M25.46,14.3V5.06a2.4,2.4,0,0,1,2.29-2.48h3.43a2.4,2.4,0,0,1,2.29,2.48v9.06"/><circle class="cls-2" cx="27.11" cy="24.95" r="6.5"/><line class="cls-1" x1="27.11" y1="16.18" x2="27.11" y2="18.44"/><line class="cls-1" x1="32.74" y1="21.69" x2="34.92" y2="20.38"/><line class="cls-1" x1="19.25" y1="20.47" x2="21.46" y2="21.74"/><line class="cls-1" x1="19.3" y1="29.41" x2="21.48" y2="28.2"/><line class="cls-1" x1="27.11" y1="33.88" x2="27.11" y2="31.45"/><line class="cls-1" x1="34.75" y1="29.59" x2="32.71" y2="28.26"/><circle class="cls-1" cx="27.11" cy="25.09" r="2.57"/><line class="cls-1" x1="5.46" y1="22.69" x2="5.46" y2="23.26"/><line class="cls-1" x1="5.46" y1="27.45" x2="5.46" y2="28.02"/></svg>