<svg id="图层_1" data-name="图层 1" xmlns="http://www.w3.org/2000/svg" viewBox="0 0 36 36"><defs><style>.cls-1{fill:none;}.cls-1,.cls-2{stroke:#6975f9;stroke-linecap:round;stroke-linejoin:round;}.cls-2{fill:#c6c9fd;}</style></defs><title>画板 25</title><path class="cls-1" d="M12.36,27.08a3.19,3.19,0,0,1,1.25.25,3.28,3.28,0,0,1,1,.69,2.9,2.9,0,0,1,.69,1,3.28,3.28,0,0,1,0,2.5,2.9,2.9,0,0,1-.69,1,3.6,3.6,0,0,1-1,.69,3.09,3.09,0,0,1-1.25.26,3,3,0,0,1-1.27-.26,3.62,3.62,0,0,1-1-.69,2.9,2.9,0,0,1-.69-1,3.28,3.28,0,0,1,0-2.5,2.9,2.9,0,0,1,.69-1,3.29,3.29,0,0,1,1-.69A3.15,3.15,0,0,1,12.36,27.08Z"/><path class="cls-1" d="M26.83,27.08a3.35,3.35,0,0,1,1.27.25,3,3,0,0,1,1,.69,3.32,3.32,0,0,1,.69,1,3.12,3.12,0,0,1,0,2.5,3.24,3.24,0,0,1-3,2,3.09,3.09,0,0,1-1.28-.27,3.27,3.27,0,0,1-1-.69,3.32,3.32,0,0,1-.69-1,3.12,3.12,0,0,1,0-2.5,3.32,3.32,0,0,1,.69-1,3,3,0,0,1,1-.69,3.19,3.19,0,0,1,1.25-.25Z"/><path class="cls-2" d="M32.67,8.75A3.48,3.48,0,0,1,34.19,9a1.71,1.71,0,0,1,.76.64,1.5,1.5,0,0,1,.21.82,2.75,2.75,0,0,1-.12.74l-.43,1.28c-.22.65-.47,1.37-.75,2.13s-.55,1.54-.82,2.31-.47,1.37-.61,1.8a4,4,0,0,1-1.15,1.93,2.75,2.75,0,0,1-1.71.54H11.31l.51,3.12H29.37q1.67,0,1.67,1.42a2.14,2.14,0,0,1-.33,1.2,1.45,1.45,0,0,1-1.3.5H11.17A2.06,2.06,0,0,1,10,27.12a2.68,2.68,0,0,1-.78-.81,5.27,5.27,0,0,1-.5-1.09,9.31,9.31,0,0,1-.3-1.11c0-.14-.09-.47-.19-1s-.23-1.2-.38-2l-.5-2.67-.56-3Q6.1,12,5.29,7.67H2.69a1.37,1.37,0,0,1-.87-.26,2.18,2.18,0,0,1-.58-.62A2.3,2.3,0,0,1,.93,6a3.56,3.56,0,0,1-.09-.76A1.53,1.53,0,0,1,1.31,4.1a1.76,1.76,0,0,1,1.27-.45H6.09a2.41,2.41,0,0,1,1.11.21,1.9,1.9,0,0,1,.69.51,2.17,2.17,0,0,1,.34.69c.08.23.13.43.18.59a7.91,7.91,0,0,1,.14.78c0,.34.1.69.14,1s.14.85.21,1.32Z"/><line class="cls-2" x1="23.38" y1="13.55" x2="33.78" y2="13.55"/></svg>