<svg id="图层_1" data-name="图层 1" xmlns="http://www.w3.org/2000/svg" viewBox="0 0 140 42"><defs><style>.cls-1{fill:#fff;}.cls-2,.cls-3,.cls-4{fill:none;stroke:#fff;stroke-width:0.93px;}.cls-2,.cls-3{stroke-linecap:round;stroke-linejoin:round;}.cls-3{opacity:0.3;isolation:isolate;}.cls-4{stroke-miterlimit:10;}</style></defs><title>画板 6</title><path class="cls-1" d="M131,17h3.38v3.5h4v2.8h-4v4.16a3.34,3.34,0,0,0,.39,1.71,1.65,1.65,0,0,0,1.51.62,5.55,5.55,0,0,0,1.13-.12,10.41,10.41,0,0,0,1-.27l.47,2.6a7.91,7.91,0,0,1-1.36.43,9.38,9.38,0,0,1-1.83.19,6.61,6.61,0,0,1-2.29-.39,3.82,3.82,0,0,1-1.44-1,3.49,3.49,0,0,1-.74-1.63,9.64,9.64,0,0,1-.23-2.1Z"/><path class="cls-1" d="M78.95,19.93A5.93,5.93,0,0,0,73,25.84h0v.85a5.94,5.94,0,0,0,11.88,0v-.85a5.93,5.93,0,0,0-5.94-5.9Zm2.91,6.76a2.92,2.92,0,0,1-3,2.91A2.87,2.87,0,0,1,76,26.73h0v-.85A2.9,2.9,0,0,1,78.91,23h0a2.94,2.94,0,0,1,3,2.91Z"/><path class="cls-1" d="M94.8,15.05v6.33A5,5,0,0,0,91.34,20a5.66,5.66,0,0,0-5.4,5.9v.85a5.66,5.66,0,0,0,5.4,5.9,5,5,0,0,0,3.46-1.36v1h3.46V15.05Zm0,11.73a2.91,2.91,0,1,1-5.83,0v-.85a2.91,2.91,0,1,1,5.83,0Z"/><path class="cls-1" d="M111.17,27.31V26c0-3.65-2.25-6-5.83-6s-5.83,2.49-5.83,6.45,2.29,6.25,6,6.25c3,0,5.17-1.67,5.59-3.84h-3.22a3.06,3.06,0,0,1-2.37,1.28,2.66,2.66,0,0,1-2.8-2.64v-.16h8.43Zm-5.83-4.7a2.55,2.55,0,0,1,2.6,2.49v.12h-5.17a2.55,2.55,0,0,1,2.49-2.6Z"/><path class="cls-1" d="M129.74,27.31V26c0-3.65-2.25-6-5.83-6s-5.83,2.49-5.83,6.45,2.29,6.25,6,6.25c3,0,5.17-1.67,5.59-3.84h-3.22a3.06,3.06,0,0,1-2.37,1.28,2.66,2.66,0,0,1-2.8-2.64v-.16h8.43Zm-5.83-4.7a2.55,2.55,0,0,1,2.6,2.49v.12h-5.17a2.55,2.55,0,0,1,2.49-2.6Z"/><path class="cls-1" d="M62.62,26.19a7.21,7.21,0,0,1,.43-2.5,5.85,5.85,0,0,1,3.22-3.43,6.52,6.52,0,0,1,2.65-.51,8.56,8.56,0,0,1,1.79.17,8.73,8.73,0,0,1,1.58.5l-.72,2.77a8.81,8.81,0,0,0-1.07-.33,5.73,5.73,0,0,0-1.31-.12,3.13,3.13,0,0,0-2.29,1A3.87,3.87,0,0,0,66,26.19a3.66,3.66,0,0,0,.8,2.51,3.27,3.27,0,0,0,2.5,1,5.81,5.81,0,0,0,1.38-.13A7.65,7.65,0,0,0,72,29.16L72.5,32a8.14,8.14,0,0,1-1.51.44,10,10,0,0,1-2,.19,7.53,7.53,0,0,1-2.88-.5,5.42,5.42,0,0,1-2-1.36,5.29,5.29,0,0,1-1.14-2A8.62,8.62,0,0,1,62.62,26.19Z"/><path class="cls-1" d="M117.3,32.63a8.67,8.67,0,0,1-2.45-.33,3.64,3.64,0,0,1-1.49-.85,2.81,2.81,0,0,1-.74-1.33,7.14,7.14,0,0,1-.2-1.76V15.05h3.46V27.68a4.57,4.57,0,0,0,.07.84,1.44,1.44,0,0,0,.27.63,1.41,1.41,0,0,0,.57.42,3.11,3.11,0,0,0,1,.21Z"/><line class="cls-2" x1="36.55" y1="29.2" x2="36.55" y2="40.57"/><line class="cls-3" x1="36.84" y1="23.85" x2="47.93" y2="28.47"/><polyline class="cls-2" points="24.89 35.48 36.55 40.67 48.22 35.37 48.47 25.26"/><line class="cls-3" x1="24.89" y1="28.05" x2="36.84" y2="23.85"/><line class="cls-3" x1="13.28" y1="13.14" x2="13.28" y2="23.17"/><line class="cls-3" x1="25.56" y1="1.32" x2="25.46" y2="11.65"/><line class="cls-3" x1="13.28" y1="23.17" x2="24.66" y2="27.96"/><polygon class="cls-2" points="25.22 17.16 24.89 25.04 12.95 28.79 1.33 24.66 1.67 16.79 13.61 13.04 25.22 17.16"/><line class="cls-3" x1="13.56" y1="15.85" x2="25.46" y2="11.65"/><line class="cls-3" x1="25.46" y1="11.65" x2="36.75" y2="16.76"/><polygon class="cls-2" points="37.17 5.45 36.84 13.32 24.89 17.08 13.28 12.95 13.61 5.07 25.56 1.32 37.17 5.45"/><line class="cls-3" x1="36.84" y1="13.33" x2="36.84" y2="23.85"/><line class="cls-2" x1="12.95" y1="40.68" x2="1.62" y2="35.18"/><polyline class="cls-2" points="24.89 25.04 24.89 35.48 13.04 40.68"/><polygon class="cls-4" points="48.78 17.37 48.45 25.25 36.5 29 24.89 24.87 25.23 16.99 37.17 13.24 48.78 17.37"/><line class="cls-2" x1="1.33" y1="24.66" x2="1.62" y2="35.18"/><line class="cls-2" x1="12.95" y1="28.79" x2="12.95" y2="40.68"/></svg>