<svg id="图层_1" data-name="图层 1" xmlns="http://www.w3.org/2000/svg" viewBox="0 0 38 38"><defs><style>.cls-1{fill:#c6c9fd;}.cls-1,.cls-2{stroke:#6975f9;stroke-linecap:round;stroke-linejoin:round;}.cls-2{fill:none;}</style></defs><title>画板 63</title><path class="cls-1" d="M34.45,22.23a3,3,0,0,1,0-6h.06V9.76a2,2,0,0,0-2-2H5.47a2,2,0,0,0-2,2v6.48a3,3,0,0,1,2.68,3h0a3,3,0,0,1-2.68,3v6.48a2,2,0,0,0,2,2H32.53a2,2,0,0,0,2-2V22.23Z"/><line class="cls-2" x1="14.48" y1="13.56" x2="19.01" y2="17.93"/><line class="cls-2" x1="19.01" y1="17.93" x2="23.53" y2="13.52"/><line class="cls-2" x1="14.15" y1="18.29" x2="23.81" y2="18.29"/><line class="cls-2" x1="14.15" y1="21.54" x2="23.81" y2="21.54"/><line class="cls-2" x1="19.01" y1="17.93" x2="19.01" y2="24.93"/></svg>