<svg id="图层_1" data-name="图层 1" xmlns="http://www.w3.org/2000/svg" viewBox="0 0 48 48"><defs><style>.cls-1{fill:#4449d1;}.cls-2,.cls-3{fill:none;stroke:#fff;stroke-linecap:round;stroke-linejoin:round;stroke-width:0.8px;}.cls-3{opacity:0.3;isolation:isolate;}</style></defs><title>画板 9</title><rect class="cls-1" x="-0.01" y="0.15" width="48.01" height="48.01" rx="8" ry="8"/><line class="cls-2" x1="33.78" y1="30.52" x2="33.78" y2="40.33"/><polyline class="cls-2" points="23.85 36.11 33.78 40.43 43.65 36.08 43.99 27.32"/><polygon class="cls-2" points="24.14 20.25 23.86 26.99 13.65 30.19 3.73 26.66 4.01 19.93 14.22 16.73 24.14 20.25"/><polygon class="cls-2" points="34.64 10.31 34.36 17.05 24.15 20.26 14.22 16.73 14.51 9.99 24.72 6.79 34.64 10.31"/><line class="cls-2" x1="13.65" y1="40.43" x2="3.99" y2="35.6"/><polyline class="cls-2" points="23.86 26.99 23.85 36.11 13.65 40.43"/><polygon class="cls-2" points="44.27 20.58 43.99 27.32 33.78 30.52 23.85 26.99 24.14 20.26 34.35 17.05 44.27 20.58"/><line class="cls-2" x1="3.73" y1="26.66" x2="3.99" y2="35.6"/><line class="cls-2" x1="13.65" y1="30.19" x2="13.65" y2="40.43"/><line class="cls-3" x1="34.35" y1="26.31" x2="43.84" y2="30.25"/><line class="cls-3" x1="24.14" y1="29.9" x2="34.35" y2="26.31"/><line class="cls-3" x1="14.22" y1="17.15" x2="14.22" y2="25.73"/><line class="cls-3" x1="24.71" y1="7.05" x2="24.63" y2="15.88"/><line class="cls-3" x1="14.22" y1="25.73" x2="23.95" y2="29.82"/><line class="cls-3" x1="14.46" y1="19.47" x2="24.63" y2="15.88"/><line class="cls-3" x1="24.63" y1="15.88" x2="34.28" y2="20.25"/><line class="cls-3" x1="34.35" y1="17.32" x2="34.35" y2="26.31"/><line class="cls-3" x1="3.81" y1="29.54" x2="14.22" y2="25.73"/></svg>