<svg id="图层_1" data-name="图层 1" xmlns="http://www.w3.org/2000/svg" viewBox="0 0 36 36"><defs><style>.cls-1{fill:#c6c9fd;}.cls-1,.cls-2{stroke:#6975f9;stroke-linecap:round;stroke-linejoin:round;}.cls-2{fill:none;}</style></defs><title>画板 26 副本 3</title><path class="cls-1" d="M25.48,33h0c0-1-1.17-2-3.1-2.53a11.27,11.27,0,0,0-1.53-.31l-.21,0-.89-12.74.15-.07a2.56,2.56,0,1,0-2,.09l.17.06-.59,12.67-.21,0a7.8,7.8,0,0,0-3.76,1.4A1.89,1.89,0,0,0,12.69,33Z"/><path class="cls-2" d="M12.69,8s-6.23,4.76-.61,10.83"/><path class="cls-2" d="M10.09,5.56s-8.82,6.91-.8,15.62"/><path class="cls-2" d="M6.8,3s-10.9,9.56-.42,20.71"/><path class="cls-2" d="M23.31,8s6.23,4.76.61,10.83"/><path class="cls-2" d="M25.91,5.56s8.82,6.91.8,15.62"/><path class="cls-2" d="M29.2,3s10.9,9.56.42,20.71"/></svg>