<svg id="图层_1" data-name="图层 1" xmlns="http://www.w3.org/2000/svg" viewBox="0 0 140 42"><defs><style>.cls-1{fill:#fff;}.cls-2,.cls-3{fill:none;stroke:#fff;stroke-linecap:round;stroke-linejoin:round;stroke-width:0.94px;}.cls-3{opacity:0.3;isolation:isolate;}</style></defs><title>画板 6</title><path class="cls-1" d="M131,17h3.38v3.5h4v2.8h-4v4.16a3.34,3.34,0,0,0,.39,1.71,1.65,1.65,0,0,0,1.51.62,5.55,5.55,0,0,0,1.13-.12,10.41,10.41,0,0,0,1-.27l.47,2.6a7.91,7.91,0,0,1-1.36.43,9.38,9.38,0,0,1-1.83.19,6.61,6.61,0,0,1-2.29-.39,3.82,3.82,0,0,1-1.44-1,3.49,3.49,0,0,1-.74-1.63,9.64,9.64,0,0,1-.23-2.1Z"/><path class="cls-1" d="M78.95,19.93A5.93,5.93,0,0,0,73,25.84h0v.85a5.94,5.94,0,0,0,11.88,0v-.85a5.93,5.93,0,0,0-5.94-5.9Zm2.91,6.76a2.92,2.92,0,0,1-3,2.91A2.87,2.87,0,0,1,76,26.73h0v-.85A2.9,2.9,0,0,1,78.91,23h0a2.94,2.94,0,0,1,3,2.91Z"/><path class="cls-1" d="M94.8,15.05v6.33A5,5,0,0,0,91.34,20a5.66,5.66,0,0,0-5.4,5.9v.85a5.66,5.66,0,0,0,5.4,5.9,5,5,0,0,0,3.46-1.36v1h3.46V15.05Zm0,11.73a2.91,2.91,0,1,1-5.83,0v-.85a2.91,2.91,0,1,1,5.83,0Z"/><path class="cls-1" d="M111.17,27.31V26c0-3.65-2.25-6-5.83-6s-5.83,2.49-5.83,6.45,2.29,6.25,6,6.25c3,0,5.17-1.67,5.59-3.84h-3.22a3.06,3.06,0,0,1-2.37,1.28,2.66,2.66,0,0,1-2.8-2.64v-.16h8.43Zm-5.83-4.7a2.55,2.55,0,0,1,2.6,2.49v.12h-5.17a2.55,2.55,0,0,1,2.49-2.6Z"/><path class="cls-1" d="M129.74,27.31V26c0-3.65-2.25-6-5.83-6s-5.83,2.49-5.83,6.45,2.29,6.25,6,6.25c3,0,5.17-1.67,5.59-3.84h-3.22a3.06,3.06,0,0,1-2.37,1.28,2.66,2.66,0,0,1-2.8-2.64v-.16h8.43Zm-5.83-4.7a2.55,2.55,0,0,1,2.6,2.49v.12h-5.17a2.55,2.55,0,0,1,2.49-2.6Z"/><path class="cls-1" d="M62.62,26.19a7.21,7.21,0,0,1,.43-2.5,5.85,5.85,0,0,1,3.22-3.43,6.52,6.52,0,0,1,2.65-.51,8.56,8.56,0,0,1,1.79.17,8.73,8.73,0,0,1,1.58.5l-.72,2.77a8.81,8.81,0,0,0-1.07-.33,5.73,5.73,0,0,0-1.31-.12,3.13,3.13,0,0,0-2.29,1A3.87,3.87,0,0,0,66,26.19a3.66,3.66,0,0,0,.8,2.51,3.27,3.27,0,0,0,2.5,1,5.81,5.81,0,0,0,1.38-.13A7.65,7.65,0,0,0,72,29.16L72.5,32a8.14,8.14,0,0,1-1.51.44,10,10,0,0,1-2,.19,7.53,7.53,0,0,1-2.88-.5,5.42,5.42,0,0,1-2-1.36,5.29,5.29,0,0,1-1.14-2A8.62,8.62,0,0,1,62.62,26.19Z"/><path class="cls-1" d="M117.3,32.63a8.67,8.67,0,0,1-2.45-.33,3.64,3.64,0,0,1-1.49-.85,2.81,2.81,0,0,1-.74-1.33,7.14,7.14,0,0,1-.2-1.76V15.05h3.46V27.68a4.57,4.57,0,0,0,.07.84,1.44,1.44,0,0,0,.27.63,1.41,1.41,0,0,0,.57.42,3.11,3.11,0,0,0,1,.21Z"/><line class="cls-2" x1="37.03" y1="29.47" x2="37.03" y2="41.03"/><polyline class="cls-2" points="25.32 36.05 37.03 41.15 48.67 36.02 49.06 25.69"/><polygon class="cls-2" points="25.66 17.36 25.33 25.3 13.3 29.08 1.59 24.92 1.93 16.98 13.96 13.21 25.66 17.36"/><polygon class="cls-2" points="38.04 5.64 37.71 13.58 25.67 17.37 13.96 13.2 14.3 5.27 26.34 1.49 38.04 5.64"/><line class="cls-2" x1="13.3" y1="41.15" x2="1.9" y2="35.45"/><polyline class="cls-2" points="25.33 25.3 25.32 36.05 13.3 41.15"/><polygon class="cls-2" points="49.4 17.75 49.06 25.69 37.03 29.47 25.32 25.31 25.67 17.37 37.7 13.59 49.4 17.75"/><line class="cls-2" x1="1.59" y1="24.92" x2="1.9" y2="35.45"/><line class="cls-2" x1="13.3" y1="29.08" x2="13.3" y2="41.15"/><line class="cls-3" x1="37.7" y1="24.5" x2="48.88" y2="29.15"/><line class="cls-3" x1="25.66" y1="28.73" x2="37.7" y2="24.5"/><line class="cls-3" x1="13.97" y1="13.71" x2="13.97" y2="23.82"/><line class="cls-3" x1="26.34" y1="1.8" x2="26.24" y2="12.21"/><line class="cls-3" x1="13.97" y1="23.82" x2="25.43" y2="28.64"/><line class="cls-3" x1="14.25" y1="16.44" x2="26.24" y2="12.21"/><line class="cls-3" x1="26.24" y1="12.21" x2="37.62" y2="17.35"/><line class="cls-3" x1="37.7" y1="13.9" x2="37.7" y2="24.5"/><line class="cls-3" x1="1.69" y1="28.32" x2="13.97" y2="23.82"/></svg>