<svg id="图层_1" data-name="图层 1" xmlns="http://www.w3.org/2000/svg" viewBox="0 0 48 48"><defs><style>.cls-1,.cls-2{fill:none;stroke:#4449d1;stroke-linecap:round;stroke-linejoin:round;stroke-width:1.07px;}.cls-2{opacity:0.3;isolation:isolate;}</style></defs><title>画板 9 副本</title><line class="cls-1" x1="34.94" y1="31.51" x2="34.94" y2="42.48"/><polyline class="cls-1" points="23.84 37.76 34.94 42.59 45.98 37.73 46.36 27.93"/><polygon class="cls-1" points="24.16 20.03 23.84 27.56 12.43 31.14 1.32 27.2 1.65 19.67 13.06 16.09 24.16 20.03"/><polygon class="cls-1" points="35.9 8.91 35.59 16.44 24.16 20.03 13.06 16.08 13.38 8.55 24.8 4.97 35.9 8.91"/><line class="cls-1" x1="12.43" y1="42.59" x2="1.62" y2="37.19"/><polyline class="cls-1" points="23.84 27.56 23.84 37.76 12.43 42.59"/><polygon class="cls-1" points="46.68 20.39 46.36 27.93 34.94 31.51 23.84 27.56 24.16 20.03 35.58 16.45 46.68 20.39"/><line class="cls-1" x1="1.32" y1="27.2" x2="1.62" y2="37.19"/><line class="cls-1" x1="12.43" y1="31.14" x2="12.43" y2="42.59"/><line class="cls-2" x1="35.58" y1="26.8" x2="46.19" y2="31.21"/><line class="cls-2" x1="24.16" y1="30.81" x2="35.58" y2="26.8"/><line class="cls-2" x1="13.06" y1="16.56" x2="13.06" y2="26.15"/><line class="cls-2" x1="24.8" y1="5.26" x2="24.7" y2="15.13"/><line class="cls-2" x1="13.06" y1="26.15" x2="23.94" y2="30.73"/><line class="cls-2" x1="13.33" y1="19.15" x2="24.7" y2="15.13"/><line class="cls-2" x1="24.7" y1="15.13" x2="35.5" y2="20.02"/><line class="cls-2" x1="35.58" y1="16.74" x2="35.58" y2="26.8"/><line class="cls-2" x1="1.42" y1="30.42" x2="13.06" y2="26.15"/></svg>