<svg id="图层_1" data-name="图层 1" xmlns="http://www.w3.org/2000/svg" xmlns:xlink="http://www.w3.org/1999/xlink" viewBox="0 0 106 36"><defs><style>.cls-1{fill:#f3552f;}.cls-2{fill:url(#未命名的渐变_61);}.cls-3{fill:url(#未命名的渐变_22);}</style><linearGradient id="未命名的渐变_61" x1="74.16" y1="28.86" x2="86.96" y2="5.13" gradientUnits="userSpaceOnUse"><stop offset="0" stop-color="#33b074"/><stop offset="1" stop-color="#32a58e"/></linearGradient><linearGradient id="未命名的渐变_22" x1="86.06" y1="7.41" x2="98.69" y2="29.12" gradientUnits="userSpaceOnUse"><stop offset="0" stop-color="#52c664"/><stop offset="1" stop-color="#31aaab"/></linearGradient></defs><title>画板 53</title><path class="cls-1" d="M15.75,34.93a2.64,2.64,0,0,1-1.31-.35l-4.16-2.46c-.62-.35-.32-.47-.11-.54a8.19,8.19,0,0,0,1.88-.86.3.3,0,0,1,.31,0l3.19,1.89a.39.39,0,0,0,.38,0l12.45-7.18a.4.4,0,0,0,.19-.34V10.75a.4.4,0,0,0-.2-.34L15.94,3.23a.39.39,0,0,0-.38,0L3.12,10.41a.39.39,0,0,0-.2.34V25.12a.37.37,0,0,0,.2.33l3.41,2c1.85.92,3-.16,3-1.26V12a.36.36,0,0,1,.36-.36h1.58a.36.36,0,0,1,.36.36V26.16c0,2.47-1.35,3.88-3.69,3.88a5.29,5.29,0,0,1-2.86-.78L2,27.38A2.62,2.62,0,0,1,.7,25.11V10.75A2.63,2.63,0,0,1,2,8.48L14.45,1.29a2.73,2.73,0,0,1,2.61,0L29.51,8.49a2.62,2.62,0,0,1,1.31,2.27V25.12a2.64,2.64,0,0,1-1.31,2.27L17.06,34.57A2.62,2.62,0,0,1,15.75,34.93Zm10-14.16c0-2.69-1.82-3.4-5.64-3.91s-4.26-.78-4.26-1.68c0-.75.33-1.75,3.19-1.75,2.55,0,3.5.55,3.89,2.28a.36.36,0,0,0,.35.28H25a.35.35,0,0,0,.26-.11.38.38,0,0,0,.09-.28c-.25-3-2.22-4.35-6.21-4.35-3.55,0-5.67,1.5-5.67,4,0,2.72,2.11,3.48,5.51,3.81,4.08.4,4.39,1,4.39,1.8,0,1.39-1.12,2-3.74,2-3.3,0-4-.83-4.26-2.47a.36.36,0,0,0-.36-.3H13.37a.36.36,0,0,0-.36.36c0,2.1,1.14,4.6,6.59,4.6,3.94,0,6.2-1.56,6.2-4.27Z"/><polygon class="cls-2" points="92.12 9.59 88.67 7.43 78.7 24.91 73.73 24.91 82.53 9.51 79.06 7.43 69.03 24.91 66.85 28.4 81.39 28.38 81.39 28.38 92.12 9.59"/><polygon class="cls-3" points="103.35 24.98 103.34 24.98 93.21 7.43 88.67 7.43 98.65 24.98 93.85 24.98 83.72 7.43 79.06 7.43 89.15 24.98 89.14 24.98 91.16 28.46 105.3 28.46 103.35 24.98"/></svg>