<svg id="图层_1" data-name="图层 1" xmlns="http://www.w3.org/2000/svg" viewBox="0 0 38 38"><defs><style>.cls-1{fill:#c6c9fd;}.cls-1,.cls-2{stroke:#6975f9;stroke-linecap:round;stroke-linejoin:round;}.cls-2{fill:none;}</style></defs><title>画板 62</title><path class="cls-1" d="M32.21,24.88c-3.14.68-9.59,8.3-11.68,12-3-3.56-6.45-6.27-8.89-7.12l5.75-3.39,2.79,5.25S24.71,21,31.86,17.42C31.69,20,31,22.17,32.21,24.88Z"/><path class="cls-2" d="M24.52,7.66H21.15s0-1.28,0-3.25A3.57,3.57,0,0,0,17.71.92,3.41,3.41,0,0,0,14.35,4.4c0,1.83,0,3.26,0,3.26H11A1.12,1.12,0,0,0,9.84,8.79V11h15.8V8.79A1.12,1.12,0,0,0,24.52,7.66Z"/><circle class="cls-2" cx="17.94" cy="5.79" r="1.22"/><path class="cls-2" d="M16.39,36H8.86a2.35,2.35,0,0,1-2.35-2.35V7.78A2.35,2.35,0,0,1,8.86,5.43h3.91"/><path class="cls-2" d="M29.18,29.27v4.4A2.35,2.35,0,0,1,26.84,36H23.27"/><path class="cls-2" d="M22.8,5.43h4a2.35,2.35,0,0,1,2.35,2.35v9.4"/></svg>