<svg id="图层_1" data-name="图层 1" xmlns="http://www.w3.org/2000/svg" viewBox="0 0 38 38"><defs><style>.cls-1{fill:none;}.cls-1,.cls-2,.cls-3{stroke:#6975f9;stroke-linecap:round;stroke-linejoin:round;stroke-width:2px;}.cls-2{fill:#c6c9fd;}.cls-3{fill:#fff;}</style></defs><title>画板 33</title><polygon class="cls-1" points="25.42 8.95 12.42 8.95 10.51 2.94 27.41 2.94 25.42 8.95"/><path class="cls-2" d="M14.25,12.33h9.47a3.29,3.29,0,0,1,2.4,1c2.73,2.9,9.94,11.2,8.73,16.85-1.14,4-8.3,5-15.69,5C11.48,35.23,4,35,3,29.23,2.6,23.8,9.26,16.14,11.85,13.38A3.29,3.29,0,0,1,14.25,12.33Z"/><polygon class="cls-3" points="22.9 28.16 19.56 26.49 16.3 28.29 16.85 24.6 14.13 22.05 17.81 21.44 19.39 18.06 21.11 21.37 24.81 21.84 22.2 24.49 22.9 28.16"/></svg>