<svg id="图层_1" data-name="图层 1" xmlns="http://www.w3.org/2000/svg" xmlns:xlink="http://www.w3.org/1999/xlink" viewBox="0 0 106 36"><defs><style>.cls-1{fill:#73dcf9;}.cls-2{fill:url(#未命名的渐变_10);}.cls-3{fill:url(#未命名的渐变_3);}.cls-4{fill:url(#未命名的渐变_3-2);}</style><linearGradient id="未命名的渐变_10" x1="-5479.56" y1="-4201.08" x2="-5446.76" y2="-4201.08" gradientTransform="translate(-5380.78 -4183) rotate(180)" gradientUnits="userSpaceOnUse"><stop offset="0" stop-color="#47b0dc"/><stop offset="0.17" stop-color="#1584dc"/><stop offset="1" stop-color="#6eb0dc"/></linearGradient><linearGradient id="未命名的渐变_3" x1="-5418.92" y1="1935.29" x2="-5407.03" y2="1935.29" gradientTransform="translate(-1836.95 -5394.89) rotate(-90)" gradientUnits="userSpaceOnUse"><stop offset="0.03" stop-color="#ec776f"/><stop offset="0.5" stop-color="#ec656f"/><stop offset="1" stop-color="#ec606f"/></linearGradient><linearGradient id="未命名的渐变_3-2" x1="652.23" y1="-4253.96" x2="662.28" y2="-4253.96" gradientTransform="translate(-4168.89 -639.17) rotate(90)" xlink:href="#未命名的渐变_3"/></defs><title>画板 58</title><path class="cls-1" d="M18.18,18.08a3.1,3.1,0,0,0,6.2,0h0a3.1,3.1,0,1,0-6.2,0Z"/><path class="cls-1" d="M12.6,24.25l-.68-.17c-5.1-1.29-8-3.48-8-6s2.92-4.71,8-6l.68-.17.19.68a34.1,34.1,0,0,0,2,5.19l.15.31-.15.31a33.78,33.78,0,0,0-2,5.19Zm-1-10.59c-3.88,1.09-6.25,2.75-6.25,4.41s2.38,3.32,6.25,4.41a36.16,36.16,0,0,1,1.71-4.41A35.87,35.87,0,0,1,11.6,13.66ZM30,24.25l-.19-.68a33.85,33.85,0,0,0-2-5.18l-.15-.31.15-.31a33.94,33.94,0,0,0,2-5.19L30,11.9l.69.17c5.1,1.29,8,3.48,8,6s-2.92,4.71-8,6l-.69.17Zm-.71-6.17A35.84,35.84,0,0,1,31,22.49c3.88-1.09,6.25-2.76,6.25-4.41S34.85,14.75,31,13.66A35.92,35.92,0,0,1,29.26,18.08Z"/><path class="cls-1" d="M11.59,13.65,11.4,13C10,7.92,10.4,4.3,12.59,3s5.6.22,9.22,3.94l.49.51L21.81,8a34.13,34.13,0,0,0-3.51,4.3l-.2.28-.34,0a34.29,34.29,0,0,0-5.49.88ZM14.34,4a2,2,0,0,0-1,.25c-1.44.83-1.7,3.72-.7,7.61a36.41,36.41,0,0,1,4.69-.73,36,36,0,0,1,3-3.69C18,5.29,15.87,4,14.34,4Zm13.9,29.51h0c-2.07,0-4.72-1.56-7.47-4.38l-.49-.51.49-.51a34.1,34.1,0,0,0,3.51-4.3l.2-.28.34,0a34.25,34.25,0,0,0,5.49-.88L31,22.5l.19.68c1.43,5,1,8.67-1.19,9.93a3.45,3.45,0,0,1-1.75.45Zm-5.94-4.9c2.26,2.2,4.4,3.45,5.93,3.45h0a2,2,0,0,0,1-.25c1.44-.83,1.7-3.72.7-7.61a36.26,36.26,0,0,1-4.69.73A35.76,35.76,0,0,1,22.3,28.66Z"/><path class="cls-1" d="M31,13.65l-.68-.17a34,34,0,0,0-5.49-.88l-.34,0-.2-.28A33.93,33.93,0,0,0,20.76,8l-.49-.51L20.76,7C24.38,3.27,27.83,1.8,30,3S32.61,7.92,31.17,13Zm-5.71-2.47a36.14,36.14,0,0,1,4.69.73c1-3.9.74-6.78-.7-7.61s-4.12.44-7,3.2A36,36,0,0,1,25.27,11.18ZM14.34,33.56a3.45,3.45,0,0,1-1.75-.45C10.4,31.85,10,28.23,11.4,23.18l.19-.68.68.17a34.21,34.21,0,0,0,5.49.88l.34,0,.19.28a34.2,34.2,0,0,0,3.51,4.3l.49.51-.49.51c-2.75,2.83-5.4,4.38-7.47,4.38Zm-1.72-9.31c-1,3.9-.74,6.78.7,7.61s4.12-.44,7-3.2a36.23,36.23,0,0,1-3-3.69A36.2,36.2,0,0,1,12.61,24.24Z"/><path class="cls-1" d="M21.28,25.15c-1.19,0-2.42-.05-3.65-.15l-.34,0-.2-.28q-1-1.5-2-3.08t-1.69-3.23l-.14-.31.14-.31q.78-1.65,1.69-3.23c.6-1,1.26-2.07,2-3.08l.2-.28.34,0a43.17,43.17,0,0,1,7.29,0l.34,0,.19.28a43.49,43.49,0,0,1,3.65,6.3l.15.31-.15.31a42.9,42.9,0,0,1-3.65,6.3l-.19.28-.34,0C23.71,25.1,22.48,25.15,21.28,25.15ZM18.1,23.58a42.09,42.09,0,0,0,6.37,0,42,42,0,0,0,3.18-5.5,41.43,41.43,0,0,0-3.18-5.5,42.07,42.07,0,0,0-6.37,0,41.27,41.27,0,0,0-3.18,5.5A42.19,42.19,0,0,0,18.1,23.58Z"/><path class="cls-2" d="M86.19,1.51l6.6,6.6a1.59,1.59,0,0,1,0,2.24h0a1.59,1.59,0,0,1-2.24,0L86.19,6a1.59,1.59,0,0,0-2.24,0L73,17a1.59,1.59,0,0,0,0,2.24l11,11a1.59,1.59,0,0,0,2.24,0l4.36-4.36a1.59,1.59,0,0,1,2.24,0h0a1.59,1.59,0,0,1,0,2.24l-6.6,6.6a1.59,1.59,0,0,1-2.24,0L68.5,19.2a1.59,1.59,0,0,1,0-2.24L83.95,1.51A1.59,1.59,0,0,1,86.19,1.51Z"/><path class="cls-3" d="M95,12.6h0a1.59,1.59,0,0,1,2.24,0L101.64,17a1.59,1.59,0,0,1,0,2.24l-4.36,4.36a1.59,1.59,0,0,1-2.24,0h0a1.59,1.59,0,0,1,0-2.24l2.11-2.11a1.59,1.59,0,0,0,0-2.24L95,14.85A1.59,1.59,0,0,1,95,12.6Z"/><path class="cls-4" d="M85.07,23.11a5,5,0,1,0-5-5A5,5,0,0,0,85.07,23.11Zm0-2.41a2.61,2.61,0,1,1,2.61-2.61A2.61,2.61,0,0,1,85.07,20.69Z"/></svg>