<svg id="图层_1" data-name="图层 1" xmlns="http://www.w3.org/2000/svg" viewBox="0 0 38 38"><defs><style>.cls-1{fill:none;}.cls-1,.cls-2{stroke:#6975f9;stroke-linecap:round;stroke-linejoin:round;}.cls-2{fill:#c6c9fd;}</style></defs><title>画板 60</title><path class="cls-1" d="M15.59,8.53h7.14A2.54,2.54,0,0,0,25.05,6V4.26A2.64,2.64,0,0,0,22.19,2H15.67a2.6,2.6,0,0,0-2.73,2.45V6.12A2.56,2.56,0,0,0,15.59,8.53Z"/><path class="cls-2" d="M29.53,36H8.47a2.8,2.8,0,0,1-2.8-2.8V7.45a2.8,2.8,0,0,1,2.8-2.8h2.31l.08,3.45a2.74,2.74,0,0,0,2.73,2.74H24.32a2.74,2.74,0,0,0,2.74-2.79l.17-3.41h2.3a2.8,2.8,0,0,1,2.8,2.8V33.22A2.8,2.8,0,0,1,29.53,36Z"/><line class="cls-1" x1="13.34" y1="17.4" x2="26.97" y2="17.4"/><line class="cls-1" x1="13.34" y1="22.28" x2="26.97" y2="22.28"/><line class="cls-1" x1="13.34" y1="27.16" x2="26.97" y2="27.16"/><line class="cls-1" x1="10.81" y1="17.4" x2="11.16" y2="17.4"/><line class="cls-1" x1="10.81" y1="22.28" x2="11.16" y2="22.28"/><line class="cls-1" x1="10.81" y1="27.16" x2="11.16" y2="27.16"/></svg>