<svg id="图层_1" data-name="图层 1" xmlns="http://www.w3.org/2000/svg" viewBox="0 0 38 38"><defs><style>.cls-1{fill:#c6c9fd;}.cls-1,.cls-2,.cls-3{stroke:#6975f9;stroke-linecap:round;stroke-linejoin:round;}.cls-2{fill:none;}.cls-3{fill:#fff;stroke-width:1.03px;}</style></defs><title>画板 64</title><path class="cls-1" d="M7.54,10.79c.39-2,1.95-6.76,8.06-5.33a2,2,0,0,0,1.66-.35c1.63-1.19,5.65-3.3,8.91,1.75a2,2,0,0,0,1.36.88c2.09.35,7,1.81,5.23,7.76A2,2,0,0,0,33,17.18c3.23,4.77.63,7.76-1.49,9.06a1.92,1.92,0,0,0-.87,1.42c-.42,3.36-2.71,6.63-8,5.44a2,2,0,0,0-1.5.32c-2.3,1.5-6.4,2.87-9.53-2a2,2,0,0,0-1.31-.89c-4.37-.8-6.18-3.28-5-7.72A2,2,0,0,0,5,21.1c-3.39-4.59-.63-7.46,1.67-9A2.07,2.07,0,0,0,7.54,10.79Z"/><line class="cls-2" x1="12.61" y1="26.05" x2="25.78" y2="12.88"/><circle class="cls-3" cx="23.95" cy="24.38" r="2.75"/><circle class="cls-3" cx="14.47" cy="14.73" r="2.75"/></svg>