<svg id="图层_1" data-name="图层 1" xmlns="http://www.w3.org/2000/svg" xmlns:xlink="http://www.w3.org/1999/xlink" viewBox="0 0 106 36"><defs><style>.cls-1{fill:#68ae45;}.cls-2{fill:url(#未命名的渐变_8);}.cls-3{fill:url(#未命名的渐变_8-2);}.cls-4{fill:url(#未命名的渐变_8-3);}.cls-5{fill:#d00000;}.cls-6{fill:#fff;}.cls-7{fill:#1a1a1a;}.cls-8{fill:none;stroke:#1a1a1a;stroke-miterlimit:10;stroke-width:0.52px;}.cls-9{fill:url(#未命名的渐变_8-4);}.cls-10{fill:url(#未命名的渐变_8-5);}</style><linearGradient id="未命名的渐变_8" x1="74.88" y1="17.04" x2="87.84" y2="17.04" gradientUnits="userSpaceOnUse"><stop offset="0" stop-color="#010101"/><stop offset="1" stop-color="#5f4b4b"/></linearGradient><linearGradient id="未命名的渐变_8-2" x1="66.75" y1="19.54" x2="97.93" y2="19.54" xlink:href="#未命名的渐变_8"/><linearGradient id="未命名的渐变_8-3" x1="73.48" y1="20.24" x2="83.1" y2="17.04" xlink:href="#未命名的渐变_8"/><linearGradient id="未命名的渐变_8-4" x1="97.86" y1="15.52" x2="99.96" y2="15.52" xlink:href="#未命名的渐变_8"/><linearGradient id="未命名的渐变_8-5" x1="97.89" y1="16.58" x2="99.39" y2="16.58" xlink:href="#未命名的渐变_8"/></defs><title>画板 55</title><path class="cls-1" d="M9.45,26.67c-1.1-.8-6.75-9.93,4.22-13.8,5.81-1.61,12.55,2.91,20.53-7.09,3.17,5.78,4.5,22.59-6.9,23.71-10.08.38-11.62-1-16.53.38C12.57,28,29.61,27.39,32,14.5,29.34,24.81,10.76,27.66,9.45,26.67Z"/><circle class="cls-1" cx="7.47" cy="28.62" r="2.02"/><path class="cls-2" d="M81.72,13.68C88,17,88.57,19,87.27,21.43c-1.3,2.21-5,2.31-9.26-1.81-3.13-3.81-3.2-6.77-3.11-8.49C75.08,11.24,79,12.77,81.72,13.68Z"/><path class="cls-3" d="M66.75,25.15S75.13,23,84.28,9.67c8.54-8.39,19.2,4.18,10.26,15.47C86.48,36.58,71.41,32.08,66.75,25.15Z"/><path class="cls-4" d="M77,15.66c6.92,1.5,8,3.33,7.42,6-.66,2.47-4.2,3.56-9.41.73-4-2.84-4.89-5.67-5.26-7.35C69.92,15.08,74.13,15.5,77,15.66Z"/><path class="cls-5" d="M72.59,5.83s-1,.59-1,1,.55,3.25,3.77,1.63,5.4-.1,5.59,2.76,10.43,8,16.91,5.94a11.16,11.16,0,0,0-.14-2.9,9.46,9.46,0,0,0-1.21-3.34,28,28,0,0,1-7.43.24c-8.39-.39-7.38-1.69-7.87-3s-3.61-1.5-5.46-1.11S73.11,8.27,72.59,5.83Z"/><path class="cls-5" d="M77,4.89l1.24-1.2s.1,1.4.78,1.63,3.67-.07,3.77,1-.14,3.28.35,4.08-1.52,0-1.56-.63,0-1.46,0-2.34-.9-1.07-1.51-1S77.5,7.07,77,4.89Z"/><ellipse class="cls-6" cx="94.17" cy="14.14" rx="1.73" ry="2.05" transform="translate(52.52 99.77) rotate(-72.6)"/><ellipse class="cls-7" cx="94.66" cy="14.31" rx="1.54" ry="1.4"/><path class="cls-8" d="M92.81,12A4.67,4.67,0,0,1,96,13.58"/><ellipse class="cls-6" cx="95.75" cy="13.98" rx="0.36" ry="0.42"/><polygon class="cls-9" points="97.86 15.02 99.95 15.71 97.93 16.02 97.86 15.02"/><polygon class="cls-10" points="97.89 17.14 99.39 16.58 97.93 16.02 97.89 17.14"/></svg>