<svg id="图层_1" data-name="图层 1" xmlns="http://www.w3.org/2000/svg" viewBox="0 0 106 36"><defs><style>.cls-1{fill:#59666c;}.cls-2{fill:#b8aa79;}.cls-3{fill:#68ae45;}</style></defs><title>画板 56</title><polygon class="cls-1" points="82.99 13.22 77.48 22.77 77.48 22.77 71.98 13.22 77.48 3.69 82.99 13.22"/><polygon class="cls-2" points="88.5 3.69 77.49 3.69 82.99 13.22 94 13.22 88.5 3.69"/><polygon class="cls-1" points="88.49 22.78 94 13.23 94 13.23 99.5 22.78 94 32.31 88.49 22.78"/><polygon class="cls-2" points="82.98 32.31 93.99 32.31 88.49 22.77 77.48 22.78 82.98 32.31"/><path class="cls-3" d="M10.49,26.44c-1.09-.8-6.74-9.9,4.21-13.77,5.8-1.61,12.52,2.9,20.49-7.08,3.17,5.77,4.49,22.53-6.88,23.66-10.06.38-11.59-1-16.49.38C13.61,27.81,30.6,27.16,33,14.3,30.33,24.59,11.8,27.43,10.49,26.44Z"/><circle class="cls-3" cx="8.52" cy="28.39" r="2.02"/></svg>