<svg id="图层_1" data-name="图层 1" xmlns="http://www.w3.org/2000/svg" viewBox="0 0 106 36"><defs><style>.cls-1{fill:#41b480;}.cls-2{fill:#34495e;}.cls-3{fill:#409aff;}</style></defs><title>画板 57</title><path class="cls-1" d="M26.78,3.53H33L22.9,21,12.81,3.53H6.09L22.9,32.64,39.71,3.52Z"/><path class="cls-2" d="M33,3.53h-6.2L22.9,10.25,19,3.53h-6.2L22.9,21Z"/><path class="cls-3" d="M98.81,9c-1.27-.72-12.72-7.37-12.72-7.37a1.78,1.78,0,0,0-1.57,0l-13,7.49s-.86.52-.85,1.21,0,15.59,0,15.59a1.14,1.14,0,0,0,.48.85c.47.33,13.45,7.85,13.45,7.85a1.47,1.47,0,0,0,1.33,0c.81-.45,13.2-7.61,13.2-7.61s.72-.31.73-1.69,0-14.5,0-14.5A1.83,1.83,0,0,0,98.81,9ZM96.66,23.72c0,1.08-.57,1.32-.57,1.32s-9.73,5.61-10.37,6a1.16,1.16,0,0,1-1,0S74.5,25.12,74.12,24.86a.89.89,0,0,1-.38-.66s0-11.66,0-12.2.67-.95.67-.95L84.59,5.19a1.4,1.4,0,0,1,1.24,0l8.91,5.15-8.8,5.33a1.9,1.9,0,0,0-.72,1.57V20l11.46-6.94c0,.61,0,1.58,0,2.69A2.17,2.17,0,0,1,96.19,17L86.05,23.15A2.6,2.6,0,0,0,85.21,25v2.66l11.46-6.94C96.67,22.2,96.67,23.41,96.66,23.72Z"/></svg>