<svg id="图层_1" data-name="图层 1" xmlns="http://www.w3.org/2000/svg" viewBox="0 0 36 36"><defs><style>.cls-1{fill:#c6c9fd;}.cls-1,.cls-2{stroke:#6975f9;stroke-linecap:round;stroke-linejoin:round;}.cls-2{fill:none;}</style></defs><title>画板 26 副本</title><path class="cls-1" d="M33.15,29a5,5,0,0,0,0-.59,4.22,4.22,0,0,0,0-.59l1.28-1a.3.3,0,0,0,.07-.39l-1.21-2.1a.3.3,0,0,0-.37-.13l-1.51.61a4.63,4.63,0,0,0-1-.6l-.23-1.6a.31.31,0,0,0-.3-.26H27.44a.3.3,0,0,0-.3.26l-.23,1.6a4.43,4.43,0,0,0-1,.6l-1.51-.61a.31.31,0,0,0-.37.13l-1.21,2.1a.31.31,0,0,0,.07.39l1.28,1a5.07,5.07,0,0,0,0,.59,4.22,4.22,0,0,0,0,.59l-1.28,1a.3.3,0,0,0-.07.39L24,32.48a.3.3,0,0,0,.37.13L25.89,32a4.63,4.63,0,0,0,1,.6l.23,1.6a.31.31,0,0,0,.3.26h2.42a.3.3,0,0,0,.3-.26l.23-1.6a4.43,4.43,0,0,0,1-.6l1.51.61a.31.31,0,0,0,.37-.13l1.21-2.1a.31.31,0,0,0-.07-.39l-1.28-1Zm-4.49,1.53a2.12,2.12,0,1,1,2.12-2.12A2.12,2.12,0,0,1,28.66,30.52Z"/><path class="cls-2" d="M12.2,17.46S7.77,18.9,9.58,22.82c1.38,2.42,6.71,2.55,7.07-1.67v-6.8c-.16-5.06,7.32-5.4,7.43-.62,0,1.78-1.4,2.73-3.25,3.44"/><path class="cls-2" d="M20.21,32.93a15.85,15.85,0,1,1,12.32-12.7"/></svg>